<svg fill="#000" width="200" height="200" viewBox="144 144 512 512" xmlns="http://www.w3.org/2000/svg"><g fill-rule="evenodd"><path d="m410.96 558.2c-9.7852 1.7617-20.941.99219-29.875-2.0859-1.6758-.58984-3.2812-1.3008-4.7852-2.0859.82031.03125 1.6992.054687 2.6133.054687 9.3516.0 16.16-1.9922 20.949-4.3828 7.1094 3.5352 15.043 4.3828 20.988 4.3828.92969.0 1.8203-.015625 2.6523-.054687-3.6016 1.8789-7.8203 3.2969-12.543 4.1719z"/><path d="m322.08 238.55c3.0859-1.5508 6.7461-2.457 10.668-2.457 7.0781.0 10.723 2.3477 18.797 9.8633l5.8789 5.4883 5.8164-5.5352c7.3828-7.0312 11.594-9.0547 18.742-9.0547 5.2656.0 10.012 2.543 13.074 4.6758l4.8789 3.4258 4.8945-3.4258c3.0547-2.1328 7.7852-4.6758 13.059-4.6758 7.1875.0 11.227 1.9453 18.773 9.0625l5.8555 5.5352 5.8555-5.5352c7.6836-7.25 11.668-9.8242 18.758-9.8242 3.9531.0 7.668.92969 10.754 2.5117 2.7305 1.3867 5 3.2812 6.582 5.5117 1.5977 2.25 2.5117 4.8398 2.5117 7.6055.0.14844-.007813.30859-.015625.45703l-.082032 2.1875-.19531 4.4883 6.3438 1.9297c5.9453 1.8125 10.684 5.3672 13.445 9.7461 1.6211 2.582 2.5508 5.457 2.6523 8.4297v.44141c0 2.3398-.49609 4.6367-1.4648 6.8398-.1875.46484-.43359.92187-.66797 1.3789-.03125.054687-.0625.13281-.10938.1875-1.0703 1.9688-2.5508 3.832-4.3594 5.5195-.11719.10938-.21875.21875-.34766.33203-.91406.82031-1.8984 1.5742-2.9297 2.25-1.2344.82812-2.5586 1.5508-3.9219 2.1484-1.8125.80469-3.6914 1.4102-5.6523 1.8008-1.0391.21094-2.1016.37109-3.1562.47266-.78125.070313-1.5586.10938-2.3555.125-1.25.007813-2.5273-.023437-3.8164-.10156-2.8672-.15625-5.7852-.51172-8.6055-.95312-9.0703-1.4258-16.758-3.7852-16.863-3.8164l-3.7773-1.1797-3.3438 2.1094c-6.4648 4.1016-13.273 6.1797-20.223 6.1797-12.793.0-22.051-6.8945-22.441-7.1797l-5.1484-3.8984-5.1406 3.8984c-.38672.28516-9.6523 7.1797-22.434 7.1797-6.957.0-13.762-2.0781-20.23-6.1797l-3.3359-2.1016-3.7773 1.1719c-.11719.023437-7.7227 2.3789-16.742 3.793-2.7852.44141-5.707.79688-8.582.96875-1.1875.070313-2.3555.10938-3.4883.10938h-.47266c-.74609-.015625-1.4883-.046875-2.2188-.11719-1.0547-.09375-2.1094-.23438-3.1328-.44141-1.9766-.39453-3.8906-.98438-5.707-1.7773-1.3945-.61328-2.7383-1.3398-4-2.1797-1.0391-.68359-2.0312-1.4492-2.9609-2.2734-.085937-.085938-.16406-.16406-.26953-.25-1.8359-1.6992-3.3438-3.5977-4.4414-5.5977-.039063-.070312-.070313-.13281-.09375-.19531-.22656-.41797-.44922-.82812-.62109-1.25-.98438-2.2344-1.5039-4.582-1.5039-6.9492v-.44141c.09375-2.9766 1.0312-5.8633 2.6523-8.4375 2.7617-4.3828 7.5039-7.9258 13.445-9.7383l6.3281-1.9297-.19531-4.7227-.085938-1.9453c-.015625-.15625-.015625-.31641-.015625-.46484.0-2.8008.9375-5.4141 2.5742-7.6836 1.5859-2.2539 3.8555-4.1328 6.5859-5.5117z"/><path d="m522.09 356.12c-9.3281-2.5117-17.262-5.832-23.355-9.7617-2.0781-1.332-3.9609-2.7539-5.5742-4.2188l-14.258-12.84v148.84c0 14.32-5.2109 28.117-14.656 38.863-9.3594 10.645-22.223 17.547-36.195 19.453l-.33984.054687c-.03125.023438-2.9297.51953-6.8711.51953-4.8945.0-9.1641-.75391-12.43-2.1562v-55.168c6.543-1.3164 12.578-4.1328 17.523-8.2656 7.4844-6.2344 11.609-14.664 11.609-23.75h-17.074c0 3.9297-1.9375 7.7148-5.4648 10.66-3.9766 3.3125-9.3516 5.1406-15.129 5.1406s-11.156-1.8281-15.129-5.1406c-3.5352-2.9453-5.4727-6.7305-5.4727-10.66h-17.066c0 9.0859 4.1172 17.516 11.586 23.75 4.9531 4.1328 10.988 6.9492 17.539 8.2656v55.168c-3.2578 1.4023-7.5273 2.1562-12.422 2.1562-3.9531.0-6.8477-.49609-6.8477-.50391l-.36328-.0625c-13.965-1.8984-26.836-8.8086-36.211-19.453-9.4297-10.746-14.641-24.547-14.641-38.863v-148.36l-14.191 12.57c-1.582 1.3945-3.3711 2.7305-5.3359 4.0078-6.1484 3.9531-14.168 7.2969-23.57 9.8164-9.1172 2.4414-19.422 3.9922-28.141 4.2734 4.9688-5.5273 11.312-12.641 18.121-20.332 1.8594-2.1094 3.7539-4.2578 5.6602-6.4219 1.8984-2.1328 3.793-4.2891 5.707-6.4531 4.7539-5.4062 9.5-10.816 13.988-15.926 5.3828 3.1875 11.438 5.2031 17.789 5.9102 1.543.17188 3.1172.26953 4.6914.28516 1.4258.015625 2.832-.023438 4.2656-.09375 3.0234-.14062 6.0547-.45703 8.9961-.86719 7.1719-1 13.688-2.5742 17.57-3.6211 8.2578 4.5273 16.973 6.8164 25.977 6.8164 12.035.0 21.906-4.2188 27.574-7.3594 5.6836 3.1406 15.547 7.3594 27.59 7.3594 8.9961.0 17.719-2.2891 25.969-6.8164 3.9141 1.0469 10.492 2.6367 17.742 3.6445 2.9219.41016 5.9688.71484 8.9727.85938 1.1641.054687 2.332.09375 3.4727.09375.21094.0.41797-.007813.63672-.007813 1.6289-.015625 3.2422-.11719 4.8398-.30078 6.3281-.72266 12.375-2.7617 17.719-5.9531 4.5039 5.125 9.2969 10.555 14.066 15.973 1.8906 2.1562 3.793 4.3125 5.6992 6.4531 1.9062 2.1641 3.793 4.3125 5.6602 6.4219 6.8086 7.6914 13.152 14.816 18.137 20.332-8.8242-.29687-19.184-1.8555-28.363-4.3242zm-73.305-21.484c-1.2656.0-2.543.085937-3.8008.25-6.2031.82031-11.84 3.5742-15.91 7.7461-.19531.21094-.38672.41797-.57422.63672-3.5586 3.1172-12.809 13.973-12.809 42.164h17.066c0-4.3672.25-8.1406.67578-11.383 3.7852 2.1953 8.3672 3.4492 13.32 3.4492 1.2578.0 2.543-.078125 3.8242-.24219 6.1875-.82031 11.832-3.5742 15.879-7.7539 4.5352-4.6445 6.6602-10.723 5.8789-16.68-1.3984-10.527-11.301-18.188-23.551-18.188zm-77.531 8.6367c-.17969-.21875-.38672-.42578-.57422-.63672-4.0703-4.1719-9.7148-6.9258-15.91-7.7461-1.2656-.16406-2.5508-.25-3.8242-.25-12.234.0-22.129 7.6602-23.531 18.191-.78906 5.9531 1.3477 12.035 5.8633 16.68 4.0625 4.1797 9.6836 6.9336 15.895 7.7539 1.2656.16406 2.5586.24219 3.8164.24219 4.9688.0 9.5312-1.25 13.328-3.4492.41797 3.2422.67578 7.0156.67578 11.383h17.051c.003906-28.195-9.2305-39.043-12.789-42.168z"/><path d="m448.35 360.33c-.51953.070313-1.0547.10938-1.582.10938-3.6445.0-6.4062-1.7773-6.6289-3.3633-.14062-1.0625.78906-2.1328 1.1953-2.5508 1.3633-1.418 3.4961-2.4102 5.8789-2.7227.52734-.0625 1.0547-.10156 1.5742-.10156 3.6602.0 6.4062 1.7695 6.6367 3.3633.20703 1.6992-2.4844 4.6602-7.0742 5.2656z"/><path d="m359.61 357.09c-.20312 1.582-2.9922 3.3633-6.6289 3.3633-.51172.0-1.0547-.039063-1.5742-.10938-4.5977-.60547-7.3047-3.5664-7.0781-5.2656.21094-1.5898 2.9766-3.3633 6.6133-3.3633.54297.0 1.0625.039062 1.5898.10156 2.3789.32422 4.5273 1.3164 5.8789 2.7227.41406.40625 1.3516 1.4844 1.1992 2.5508z"/></g></svg>